<svg  viewBox="0 0 32 32" fill="none" xmlns="http://www.w3.org/2000/svg">
<path d="M8.57229 18.2C8.57092 17.2512 8.76384 16.3115 9.13993 15.4351C9.51601 14.5587 10.0678 13.7629 10.7636 13.0937C11.4593 12.4244 12.2852 11.8948 13.1937 11.5355C14.1021 11.1762 15.0752 10.9942 16.0567 11.0001C20.1525 11.0296 23.4285 14.3203 23.4285 18.2904V19C23.4285 22.5815 24.2037 24.6599 24.8865 25.7958C24.9601 25.9172 24.9992 26.0552 25 26.1958C25.0008 26.3365 24.9632 26.4749 24.891 26.597C24.8187 26.7191 24.7145 26.8207 24.5887 26.8914C24.463 26.9622 24.3201 26.9996 24.1746 27H7.82541C7.67987 26.9996 7.53701 26.9622 7.41122 26.8914C7.28544 26.8206 7.18119 26.719 7.109 26.5969C7.0368 26.4747 6.99921 26.3364 7.00001 26.1957C7.00082 26.055 7.03999 25.917 7.11358 25.7956C7.79672 24.6597 8.57228 22.5814 8.57228 19L8.57229 18.2Z" stroke="#989898" stroke-width="3" stroke-linecap="round" stroke-linejoin="round"/>
<path d="M13 27.4V28.2C13 29.0487 13.3161 29.8626 13.8787 30.4627C14.4413 31.0629 15.2044 31.4 16 31.4C16.7956 31.4 17.5587 31.0629 18.1213 30.4627C18.6839 29.8626 19 29.0487 19 28.2V27.4" fill="#989898"/>
<path d="M24 8L26 6" stroke="#989898" stroke-width="3" stroke-linecap="round"/>
<path d="M9 8L7 6" stroke="#989898" stroke-width="3" stroke-linecap="round"/>
<path d="M16.5 6L16.5 2" stroke="#989898" stroke-width="3" stroke-linecap="round"/>
</svg>
