<svg width="32" height="32" viewBox="0 0 32 32" fill="none" xmlns="http://www.w3.org/2000/svg">
<rect x="4" y="4" width="10" height="10" rx="3" stroke="white" stroke-width="3"/>
<rect x="4" y="18" width="10" height="10" rx="3" stroke="white" stroke-width="3"/>
<rect x="18" y="4" width="10" height="10" rx="3" stroke="white" stroke-width="3"/>
<rect x="17" y="17" width="4" height="4" rx="1.5" fill="white"/>
<rect x="17" y="25" width="4" height="4" rx="1.5" fill="white"/>
<rect x="25" y="25" width="4" height="4" rx="1.5" fill="white"/>
<path d="M25 18.5C25 17.6716 25.6716 17 26.5 17H27.5C28.3284 17 29 17.6716 29 18.5V19.5C29 20.3284 28.3284 21 27.5 21H26.5C25.6716 21 25 20.3284 25 19.5V18.5Z" fill="white"/>
<path d="M21.5 23C21.5 22.1716 22.1716 21.5 23 21.5C23.8284 21.5 24.5 22.1716 24.5 23C24.5 23.8284 23.8284 24.5 23 24.5C22.1716 24.5 21.5 23.8284 21.5 23Z" fill="white"/>
<path d="M7.5 23C7.5 22.1716 8.17157 21.5 9 21.5C9.82843 21.5 10.5 22.1716 10.5 23C10.5 23.8284 9.82843 24.5 9 24.5C8.17157 24.5 7.5 23.8284 7.5 23Z" fill="white"/>
<path d="M21.5 9C21.5 8.17157 22.1716 7.5 23 7.5C23.8284 7.5 24.5 8.17157 24.5 9C24.5 9.82843 23.8284 10.5 23 10.5C22.1716 10.5 21.5 9.82843 21.5 9Z" fill="white"/>
<path d="M7.5 9C7.5 8.17157 8.17157 7.5 9 7.5C9.82843 7.5 10.5 8.17157 10.5 9C10.5 9.82843 9.82843 10.5 9 10.5C8.17157 10.5 7.5 9.82843 7.5 9Z" fill="white"/>
</svg>
