<svg  viewBox="0 0 32 32" fill="none" xmlns="http://www.w3.org/2000/svg">
<path d="M11.7578 20.2411L20.2431 11.7559"  stroke-width="3" stroke-linecap="round" stroke-linejoin="round"/>
<path d="M18.1212 22.3642L14.5857 25.8997C13.4604 27.0246 11.9344 27.6565 10.3432 27.6563C8.75212 27.6562 7.2262 27.0241 6.10111 25.899C4.97602 24.7739 4.34389 23.248 4.34375 21.6569C4.34361 20.0657 4.97548 18.5397 6.10038 17.4144L9.63592 13.8789"  stroke-width="3" stroke-linecap="round" stroke-linejoin="round"/>
<path d="M22.3642 18.1202L25.8997 14.5847C27.0246 13.4594 27.6565 11.9334 27.6564 10.3423C27.6562 8.75114 27.0241 7.22523 25.899 6.10013C24.7739 4.97504 23.248 4.34291 21.6569 4.34277C20.0658 4.34264 18.5397 4.97451 17.4144 6.09941L13.8789 9.63494"  stroke-width="3" stroke-linecap="round" stroke-linejoin="round"/>
</svg>
