<svg  viewBox="0 0 24 24" fill="none" xmlns="http://www.w3.org/2000/svg">
<mask id="path-1-inside-1_1282_1636" fill="white">
<path d="M21.026 12C21.8541 12 22.5364 11.3253 22.4188 10.5056C22.1711 8.77837 21.4965 7.13146 20.4459 5.7187C19.0956 3.90287 17.1961 2.57051 15.029 1.91915C12.8619 1.26779 10.5426 1.33211 8.41499 2.10257C6.28734 2.87303 4.4646 4.30862 3.21702 6.19649C1.96943 8.08436 1.36342 10.324 1.48883 12.5834C1.61425 14.8428 2.4644 17.0016 3.91325 18.7398C5.36211 20.478 7.33252 21.703 9.53238 22.2333C11.2439 22.6458 13.0235 22.6207 14.7095 22.1714C15.5097 21.9582 15.8629 21.066 15.5382 20.3042C15.2135 19.5424 14.3327 19.2044 13.5217 19.3719C12.4415 19.595 11.3192 19.5793 10.2351 19.3179C8.66196 18.9387 7.25289 18.0627 6.2168 16.8197C5.1807 15.5767 4.57275 14.0329 4.48307 12.4172C4.39339 10.8015 4.82675 9.19988 5.71891 7.84984C6.61107 6.4998 7.91453 5.4732 9.43604 4.92224C10.9575 4.37127 12.6161 4.32528 14.1658 4.79107C15.7155 5.25686 17.0739 6.20965 18.0395 7.50817C18.7049 8.40304 19.1594 9.42928 19.3777 10.5104C19.5416 11.3222 20.1979 12 21.026 12Z"/>
</mask>
<path d="M21.026 12C21.8541 12 22.5364 11.3253 22.4188 10.5056C22.1711 8.77837 21.4965 7.13146 20.4459 5.7187C19.0956 3.90287 17.1961 2.57051 15.029 1.91915C12.8619 1.26779 10.5426 1.33211 8.41499 2.10257C6.28734 2.87303 4.4646 4.30862 3.21702 6.19649C1.96943 8.08436 1.36342 10.324 1.48883 12.5834C1.61425 14.8428 2.4644 17.0016 3.91325 18.7398C5.36211 20.478 7.33252 21.703 9.53238 22.2333C11.2439 22.6458 13.0235 22.6207 14.7095 22.1714C15.5097 21.9582 15.8629 21.066 15.5382 20.3042C15.2135 19.5424 14.3327 19.2044 13.5217 19.3719C12.4415 19.595 11.3192 19.5793 10.2351 19.3179C8.66196 18.9387 7.25289 18.0627 6.2168 16.8197C5.1807 15.5767 4.57275 14.0329 4.48307 12.4172C4.39339 10.8015 4.82675 9.19988 5.71891 7.84984C6.61107 6.4998 7.91453 5.4732 9.43604 4.92224C10.9575 4.37127 12.6161 4.32528 14.1658 4.79107C15.7155 5.25686 17.0739 6.20965 18.0395 7.50817C18.7049 8.40304 19.1594 9.42928 19.3777 10.5104C19.5416 11.3222 20.1979 12 21.026 12Z" stroke="white" stroke-width="4" mask="url(#path-1-inside-1_1282_1636)"/>
</svg>
