<svg  viewBox="0 0 33 32" fill="none" xmlns="http://www.w3.org/2000/svg">
<path d="M27.0312 4.48482L3.74026 11.0541C3.54432 11.1093 3.36991 11.2231 3.24035 11.3801C3.11079 11.5372 3.03225 11.73 3.01522 11.9329C2.9982 12.1358 3.0435 12.339 3.14507 12.5154C3.24664 12.6919 3.39965 12.8331 3.58363 12.9203L14.285 17.9893C14.4937 18.0882 14.6618 18.2562 14.7606 18.465L19.8297 29.1663C19.9169 29.3503 20.0581 29.5033 20.2345 29.6049C20.411 29.7065 20.6142 29.7518 20.8171 29.7347C21.0199 29.7177 21.2128 29.6392 21.3698 29.5096C21.5269 29.38 21.6406 29.2056 21.6959 29.0097L28.2651 5.71873C28.3134 5.54764 28.3152 5.36678 28.2703 5.19478C28.2254 5.02278 28.1355 4.86585 28.0098 4.74016C27.8841 4.61446 27.7272 4.52455 27.5552 4.47966C27.3832 4.43478 27.2023 4.43656 27.0312 4.48482Z" stroke="#3B3B3B" stroke-width="3" stroke-linecap="round" stroke-linejoin="round"/>
<path d="M14.6074 18.1422L20.2643 12.4854" stroke-width="3" stroke-linecap="round" stroke-linejoin="round"/>
</svg>
