<svg viewBox="0 0 7 11" fill="none" xmlns="http://www.w3.org/2000/svg">
<path d="M1.40332 10.0288H5.82227C6.42773 10.0288 6.72559 9.73096 6.72559 9.07178V5.65869C6.72559 5.06787 6.48145 4.76514 5.97852 4.71631V3.55908C5.97852 1.81592 4.82617 0.971191 3.61523 0.971191C2.39941 0.971191 1.24707 1.81592 1.24707 3.55908V4.73584C0.783203 4.80908 0.5 5.10693 0.5 5.65869V9.07178C0.5 9.73096 0.797852 10.0288 1.40332 10.0288ZM2.03809 3.46631C2.03809 2.3335 2.76074 1.72803 3.61523 1.72803C4.46484 1.72803 5.1875 2.3335 5.1875 3.46631V4.70654L2.03809 4.71631V3.46631Z" fill="#989898"/>
</svg>
